<svg width="100%" viewBox="0 0 680 2580" xmlns="http://www.w3.org/2000/svg">
<style>
  text { font-family: system-ui, sans-serif; }
  .t  { font-size: 14px; font-weight: 400; fill: #1a1a1a; }
  .ts { font-size: 12px; font-weight: 400; fill: #555; }
  .th { font-size: 14px; font-weight: 500; fill: #1a1a1a; }
  .tl { font-size: 11px; font-weight: 500; fill: #888; letter-spacing: 0.06em; }
  .box { fill: #F7F7F8; stroke: #E2E2E4; stroke-width: 0.5; }
  .div { stroke: #E2E2E4; stroke-width: 0.5; }
  .tg50  { fill: #E1F5EE; } .tg800 { font-size:11px;font-weight:500;fill:#085041;font-family:system-ui,sans-serif; }
  .pu50  { fill: #EEEDFE; } .pu800 { font-size:11px;font-weight:500;fill:#3C3489;font-family:system-ui,sans-serif; }
  .am50  { fill: #FAEEDA; } .am800 { font-size:11px;font-weight:500;fill:#633806;font-family:system-ui,sans-serif; }
  .co50  { fill: #FAECE7; } .co800 { font-size:11px;font-weight:500;fill:#993C1D;font-family:system-ui,sans-serif; }
  .rd50  { fill: #FCEBEB; } .rd800 { font-size:11px;font-weight:500;fill:#A32D2D;font-family:system-ui,sans-serif; }
</style>
<defs>
  <marker id="arrow" viewBox="0 0 10 10" refX="8" refY="5" markerWidth="6" markerHeight="6" orient="auto-start-reverse">
    <path d="M2 1L8 5L2 9" fill="none" stroke="context-stroke" stroke-width="1.5" stroke-linecap="round" stroke-linejoin="round"/>
  </marker>
</defs>

<text x="40" y="52" font-size="22" font-weight="500" fill="#1a1a1a">Energy sector stock prediction with LSTM</text>
<text x="40" y="74" class="ts">NYSE · XOM · CVX · SLB · HAL · PyTorch · pandas-ta · 2010–2019 train · 2023–2025 test</text>
<line x1="40" y1="90" x2="640" y2="90" class="div"/>

<text x="40" y="118" class="tl">RESULTADOS — CARTEIRA EQUAL-WEIGHT · TESTE 2023–2025</text>
<rect x="40" y="128" width="134" height="62" rx="8" class="box"/>
<text x="107" y="150" text-anchor="middle" class="ts">Alpha vs B&amp;H</text>
<text x="107" y="172" text-anchor="middle" font-size="22" font-weight="500" fill="#1D9E75">+22.42%</text>
<rect x="186" y="128" width="134" height="62" rx="8" class="box"/>
<text x="253" y="150" text-anchor="middle" class="ts">Sharpe LSTM</text>
<text x="253" y="172" text-anchor="middle" font-size="22" font-weight="500" fill="#1D9E75">0.236</text>
<rect x="332" y="128" width="134" height="62" rx="8" class="box"/>
<text x="399" y="150" text-anchor="middle" class="ts">Sharpe B&amp;H</text>
<text x="399" y="172" text-anchor="middle" font-size="22" font-weight="500" fill="#D85A30">−0.135</text>
<rect x="478" y="128" width="162" height="62" rx="8" class="box"/>
<text x="559" y="150" text-anchor="middle" class="ts">Redução de drawdown</text>
<text x="559" y="172" text-anchor="middle" font-size="22" font-weight="500" fill="#1D9E75">−12.84pp</text>
<rect x="40" y="202" width="600" height="30" rx="4" class="box"/>
<text x="56" y="221" class="th">LSTM</text><text x="120" y="221" font-size="14" font-weight="500" fill="#1D9E75">+12.90%</text>
<text x="240" y="221" class="th">Buy &amp; Hold</text><text x="340" y="221" font-size="14" font-weight="500" fill="#D85A30">−9.52%</text>
<text x="430" y="221" class="th">MDD LSTM</text><text x="520" y="221" font-size="14" font-weight="500" fill="#D85A30">−20.43%</text>

<line x1="40" y1="252" x2="640" y2="252" class="div"/>
<text x="40" y="278" class="tl">RESULTADOS POR ATIVO</text>
<rect x="40" y="288" width="600" height="28" rx="4" class="box"/>
<text x="56" y="306" class="th">Ativo</text><text x="140" y="306" class="th">LSTM</text><text x="230" y="306" class="th">Buy &amp; Hold</text>
<text x="340" y="306" class="th">Alpha</text><text x="430" y="306" class="th">Threshold / dias op.</text><text x="556" y="306" class="th">Veredicto</text>
<rect x="40" y="316" width="600" height="30" fill="none" stroke="#E2E2E4" stroke-width="0.5"/>
<rect x="40" y="316" width="84" height="30" class="tg50"/>
<text x="56" y="335" class="tg800">XOM</text><text x="140" y="335" font-size="14" fill="#D85A30">−2.44%</text>
<text x="230" y="335" font-size="14" fill="#1D9E75">+17.59%</text><text x="340" y="335" font-size="14" fill="#D85A30">−20.03pp</text>
<text x="430" y="335" class="ts">0.005016 / 73.4%</text><rect x="544" y="321" width="84" height="18" rx="9" class="rd50"/><text x="586" y="333" text-anchor="middle" class="rd800">B&amp;H ganhou</text>
<rect x="40" y="346" width="600" height="30" fill="none" stroke="#E2E2E4" stroke-width="0.5"/>
<rect x="40" y="346" width="84" height="30" class="tg50"/>
<text x="56" y="365" class="tg800">CVX</text><text x="140" y="365" font-size="14" fill="#1D9E75">+41.13%</text>
<text x="230" y="365" font-size="14" fill="#1D9E75">+1.20%</text><text x="340" y="365" font-size="14" fill="#1D9E75">+39.93pp</text>
<text x="430" y="365" class="ts">0.005788 / 66.0%</text><rect x="544" y="351" width="88" height="18" rx="9" class="tg50"/><text x="588" y="363" text-anchor="middle" class="tg800">LSTM ganhou</text>
<rect x="40" y="376" width="600" height="30" fill="none" stroke="#E2E2E4" stroke-width="0.5"/>
<rect x="40" y="376" width="84" height="30" class="pu50"/>
<text x="56" y="395" class="pu800">SLB</text><text x="140" y="395" font-size="14" fill="#1D9E75">+38.58%</text>
<text x="230" y="395" font-size="14" fill="#D85A30">−25.32%</text><text x="340" y="395" font-size="14" fill="#1D9E75">+63.89pp</text>
<text x="430" y="395" class="ts">0.006711 / 65.6%</text><rect x="544" y="381" width="88" height="18" rx="9" class="tg50"/><text x="588" y="393" text-anchor="middle" class="tg800">LSTM ganhou</text>
<rect x="40" y="406" width="600" height="30" fill="none" stroke="#E2E2E4" stroke-width="0.5"/>
<rect x="40" y="406" width="84" height="30" class="pu50"/>
<text x="56" y="425" class="pu800">HAL</text><text x="140" y="425" font-size="14" fill="#D85A30">−14.86%</text>
<text x="230" y="425" font-size="14" fill="#D85A30">−24.59%</text><text x="340" y="425" font-size="14" fill="#1D9E75">+9.73pp</text>
<text x="430" y="425" class="ts">0.006546 / 61.2%</text><rect x="544" y="411" width="88" height="18" rx="9" class="tg50"/><text x="588" y="423" text-anchor="middle" class="tg800">LSTM ganhou</text>
<rect x="40" y="448" width="600" height="26" rx="6" class="box"/>
<text x="56" y="465" class="ts">Threshold dinâmico: percentil p30 — o modelo fica em cash 26–39% dos dias, protegendo capital nos sinais fracos</text>

<line x1="40" y1="494" x2="640" y2="494" class="div"/>
<text x="40" y="520" class="tl">ANÁLISE DE ROBUSTEZ — 50 SEEDS</text>
<rect x="40" y="530" width="140" height="62" rx="8" class="box"/>
<text x="110" y="552" text-anchor="middle" class="ts">LSTM bateu B&amp;H</text>
<text x="110" y="574" text-anchor="middle" font-size="22" font-weight="500" fill="#1D9E75">90%</text>
<rect x="192" y="530" width="140" height="62" rx="8" class="box"/>
<text x="262" y="552" text-anchor="middle" class="ts">Alpha médio</text>
<text x="262" y="574" text-anchor="middle" font-size="22" font-weight="500" fill="#1D9E75">+$284</text>
<rect x="344" y="530" width="140" height="62" rx="8" class="box"/>
<text x="414" y="552" text-anchor="middle" class="ts">Capital médio LSTM</text>
<text x="414" y="574" text-anchor="middle" font-size="22" font-weight="500" fill="#1D9E75">$1.206</text>
<rect x="496" y="530" width="144" height="62" rx="8" class="box"/>
<text x="568" y="552" text-anchor="middle" class="ts">Capital B&amp;H (fixo)</text>
<text x="568" y="574" text-anchor="middle" font-size="22" font-weight="500" fill="#D85A30">$922</text>
<rect x="40" y="606" width="600" height="28" rx="4" class="box"/>
<text x="56" y="624" class="th">Métrica</text><text x="240" y="624" class="th">Média</text><text x="320" y="624" class="th">Std</text><text x="390" y="624" class="th">Mín</text><text x="460" y="624" class="th">Máx</text>
<rect x="40" y="634" width="600" height="26" fill="none" stroke="#E2E2E4" stroke-width="0.5"/>
<text x="56" y="651" class="t">Sharpe carteira</text><text x="240" y="651" class="t">0.26</text><text x="320" y="651" class="ts">0.38</text><text x="390" y="651" fill="#D85A30" font-size="14">−0.59</text><text x="460" y="651" fill="#1D9E75" font-size="14">1.25</text>
<rect x="40" y="660" width="600" height="26" fill="none" stroke="#E2E2E4" stroke-width="0.5"/>
<text x="56" y="677" class="t">Alpha vs B&amp;H ($)</text><text x="240" y="677" class="t">+284</text><text x="320" y="677" class="ts">242</text><text x="390" y="677" fill="#D85A30" font-size="14">−153</text><text x="460" y="677" fill="#1D9E75" font-size="14">+1.061</text>
<rect x="40" y="686" width="600" height="26" fill="none" stroke="#E2E2E4" stroke-width="0.5"/>
<text x="56" y="703" class="t">Capital final LSTM ($)</text><text x="240" y="703" class="t">1.206</text><text x="320" y="703" class="ts">242</text><text x="390" y="703" fill="#D85A30" font-size="14">769</text><text x="460" y="703" fill="#1D9E75" font-size="14">1.983</text>
<rect x="40" y="712" width="600" height="26" fill="none" stroke="#E2E2E4" stroke-width="0.5"/>
<text x="56" y="729" class="t">Max drawdown</text><text x="240" y="729" class="t">−0.25</text><text x="320" y="729" class="ts">0.08</text><text x="390" y="729" fill="#D85A30" font-size="14">−0.47</text><text x="460" y="729" fill="#1D9E75" font-size="14">−0.12</text>

<text x="40" y="770" class="tl">DISTRIBUIÇÃO DO ALPHA — 50 RUNS ($)</text>
<line x1="80" y1="780" x2="80" y2="900" stroke="#E2E2E4" stroke-width="0.5"/>
<line x1="80" y1="900" x2="640" y2="900" stroke="#E2E2E4" stroke-width="0.5"/>
<line x1="80" y1="830" x2="640" y2="830" stroke="#1D9E75" stroke-width="0.8" stroke-dasharray="4 3"/>
<text x="638" y="827" text-anchor="end" font-size="12" fill="#1D9E75">média $284</text>
<rect x="86"  y="848" width="48" height="52" rx="2" fill="#D85A30" opacity="0.75"/><text x="110" y="908" text-anchor="middle" class="ts">&lt;0</text><text x="110" y="844" text-anchor="middle" class="ts">5</text>
<rect x="142" y="838" width="48" height="62" rx="2" fill="#1D9E75" opacity="0.6"/><text x="166" y="908" text-anchor="middle" class="ts">0–100</text><text x="166" y="834" text-anchor="middle" class="ts">6</text>
<rect x="198" y="786" width="48" height="114" rx="2" fill="#1D9E75" opacity="0.75"/><text x="222" y="908" text-anchor="middle" class="ts">100–200</text><text x="222" y="782" text-anchor="middle" class="ts">11</text>
<rect x="254" y="806" width="48" height="94" rx="2" fill="#1D9E75" opacity="0.75"/><text x="278" y="908" text-anchor="middle" class="ts">200–300</text><text x="278" y="802" text-anchor="middle" class="ts">8</text>
<rect x="310" y="806" width="48" height="94" rx="2" fill="#1D9E75" opacity="0.75"/><text x="334" y="908" text-anchor="middle" class="ts">300–400</text><text x="334" y="802" text-anchor="middle" class="ts">8</text>
<rect x="366" y="848" width="48" height="52" rx="2" fill="#1D9E75" opacity="0.75"/><text x="390" y="908" text-anchor="middle" class="ts">400–500</text><text x="390" y="844" text-anchor="middle" class="ts">5</text>
<rect x="422" y="858" width="48" height="42" rx="2" fill="#1D9E75" opacity="0.75"/><text x="446" y="908" text-anchor="middle" class="ts">500–600</text><text x="446" y="854" text-anchor="middle" class="ts">4</text>
<rect x="478" y="878" width="48" height="22" rx="2" fill="#1D9E75" opacity="0.75"/><text x="502" y="908" text-anchor="middle" class="ts">600–700</text><text x="502" y="874" text-anchor="middle" class="ts">2</text>
<rect x="534" y="888" width="48" height="12" rx="2" fill="#1D9E75" opacity="0.75"/><text x="558" y="908" text-anchor="middle" class="ts">1000+</text><text x="558" y="884" text-anchor="middle" class="ts">1</text>
<text x="56" y="870" text-anchor="middle" class="ts">count</text>

<line x1="40" y1="932" x2="640" y2="932" class="div"/>
<text x="40" y="958" class="tl">CARTEIRA</text>
<rect x="40" y="968" width="600" height="28" rx="4" class="box"/>
<text x="56" y="986" class="th">Ticker</text><text x="140" y="986" class="th">Empresa</text><text x="300" y="986" class="th">Subsetor</text><text x="460" y="986" class="th">Papel na cadeia</text>
<rect x="40" y="996" width="600" height="28" fill="none" stroke="#E2E2E4" stroke-width="0.5"/>
<rect x="40" y="996" width="84" height="28" class="tg50"/><text x="56" y="1014" class="tg800">XOM</text><text x="140" y="1014" class="t">ExxonMobil</text><text x="300" y="1014" class="ts">Petróleo integrado</text><text x="460" y="1014" class="ts">Âncora — benchmark global</text>
<rect x="40" y="1024" width="600" height="28" fill="none" stroke="#E2E2E4" stroke-width="0.5"/>
<rect x="40" y="1024" width="84" height="28" class="tg50"/><text x="56" y="1042" class="tg800">CVX</text><text x="140" y="1042" class="t">Chevron</text><text x="300" y="1042" class="ts">Petróleo integrado</text><text x="460" y="1042" class="ts">Âncora — benchmark americano</text>
<rect x="40" y="1052" width="600" height="28" fill="none" stroke="#E2E2E4" stroke-width="0.5"/>
<rect x="40" y="1052" width="84" height="28" class="pu50"/><text x="56" y="1070" class="pu800">SLB</text><text x="140" y="1070" class="t">Schlumberger</text><text x="300" y="1070" class="ts">Serviços de exploração</text><text x="460" y="1070" class="ts">Defasagem 1–2 trimestres</text>
<rect x="40" y="1080" width="600" height="28" fill="none" stroke="#E2E2E4" stroke-width="0.5"/>
<rect x="40" y="1080" width="84" height="28" class="pu50"/><text x="56" y="1098" class="pu800">HAL</text><text x="140" y="1098" class="t">Halliburton</text><text x="300" y="1098" class="ts">Serviços de completação</text><text x="460" y="1098" class="ts">Defasagem 1–2 trimestres</text>
<rect x="40" y="1120" width="600" height="36" rx="6" class="box"/>
<text x="56" y="1136" class="ts">WTI sobe → XOM/CVX lucram → aumentam capex → contratam SLB/HAL (1–2 trimestres depois).</text>
<text x="56" y="1150" class="ts">A LSTM aprende essa cadeia de causalidade treinando os 4 ativos em conjunto.</text>

<line x1="40" y1="1176" x2="640" y2="1176" class="div"/>
<text x="40" y="1202" class="tl">DADOS E SPLIT TEMPORAL</text>
<rect x="40" y="1212" width="290" height="50" rx="6" class="box"/>
<text x="56" y="1232" class="th">Treino</text><text x="56" y="1250" class="ts">2010 – 2019  ·  ~2.500 dias  ·  70%</text>
<rect x="344" y="1212" width="296" height="50" rx="6" class="box"/>
<text x="360" y="1232" class="th">Teste</text><text x="360" y="1250" class="ts">2023 – 2025  ·  ~600 dias  ·  30%</text>
<rect x="40" y="1274" width="600" height="26" fill="none" stroke="#E2E2E4" stroke-width="0.5" rx="4"/>
<rect x="40" y="1274" width="126" height="26" rx="4" class="co50"/>
<text x="56" y="1291" class="co800">2020–2022 excluído</text>
<text x="176" y="1291" class="ts">pandemia — WTI negativo abr/2020 · correlações quebraram · regime não repetível</text>

<line x1="40" y1="1320" x2="640" y2="1320" class="div"/>
<text x="40" y="1346" class="tl">13 FEATURES — 5 GRUPOS NÃO REDUNDANTES</text>
<rect x="40" y="1356" width="600" height="28" rx="4" class="box"/>
<text x="56" y="1374" class="th">Feature</text><text x="200" y="1374" class="th">Grupo</text><text x="290" y="1374" class="th">Justificativa</text>
<rect x="40" y="1384" width="600" height="24" fill="none" stroke="#E2E2E4" stroke-width="0.5"/>
<text x="56" y="1400" class="t">logret_close / logret_open</text><rect x="198" y="1388" width="52" height="15" rx="7" class="tg50"/><text x="224" y="1399" text-anchor="middle" class="tg800">Preço</text><text x="290" y="1400" class="ts">Estacionárias (ADF p&lt;0.05) · gap overnight</text>
<rect x="40" y="1408" width="600" height="24" fill="none" stroke="#E2E2E4" stroke-width="0.5"/>
<text x="56" y="1424" class="t">volume_ratio</text><rect x="198" y="1412" width="60" height="15" rx="7" class="am50"/><text x="228" y="1423" text-anchor="middle" class="am800">Volume</text><text x="290" y="1424" class="ts">Anomalia de participação normalizada</text>
<rect x="40" y="1432" width="600" height="24" fill="none" stroke="#E2E2E4" stroke-width="0.5"/>
<text x="56" y="1448" class="t">sma_diff / ema_diff</text><rect x="198" y="1436" width="72" height="15" rx="7" class="pu50"/><text x="234" y="1447" text-anchor="middle" class="pu800">Tendência</text><text x="290" y="1448" class="ts">Regime bull/bear · tendência curto prazo</text>
<rect x="40" y="1456" width="600" height="24" fill="none" stroke="#E2E2E4" stroke-width="0.5"/>
<text x="56" y="1472" class="t">rsi14 / macd_hist</text><rect x="198" y="1460" width="70" height="15" rx="7" class="co50"/><text x="233" y="1471" text-anchor="middle" class="co800">Momentum</text><text x="290" y="1472" class="ts">Sobrecompra/sobrevenda · aceleração</text>
<rect x="40" y="1480" width="600" height="24" fill="none" stroke="#E2E2E4" stroke-width="0.5"/>
<text x="56" y="1496" class="t">atr14 / bb_pct_b</text><rect x="198" y="1484" width="72" height="15" rx="7" class="tg50"/><text x="234" y="1495" text-anchor="middle" class="tg800">Volatilidade</text><text x="290" y="1496" class="ts">Regime de vol. · posição no canal Bollinger</text>
<rect x="40" y="1504" width="600" height="24" fill="none" stroke="#E2E2E4" stroke-width="0.5"/>
<text x="56" y="1520" class="t">wti / brent / spread_wb / ng</text><rect x="198" y="1508" width="46" height="15" rx="7" class="am50"/><text x="221" y="1519" text-anchor="middle" class="am800">Macro</text><text x="290" y="1520" class="ts">Drivers causais diretos do setor de energia</text>

<line x1="40" y1="1548" x2="640" y2="1548" class="div"/>
<text x="40" y="1574" class="tl">ARQUITETURA E TREINO</text>
<rect x="40" y="1584" width="148" height="52" rx="6" class="box"/>
<text x="114" y="1606" text-anchor="middle" class="th">Entrada</text><text x="114" y="1624" text-anchor="middle" class="ts">(batch, 20, 13)</text>
<line x1="188" y1="1610" x2="214" y2="1610" stroke="#999" stroke-width="1" marker-end="url(#arrow)"/>
<rect x="216" y="1584" width="188" height="52" rx="6" class="box"/>
<text x="310" y="1602" text-anchor="middle" class="th">LSTM × 2 camadas</text><text x="310" y="1620" text-anchor="middle" class="ts">hidden=128 · dropout=0.2</text>
<line x1="404" y1="1610" x2="430" y2="1610" stroke="#999" stroke-width="1" marker-end="url(#arrow)"/>
<rect x="432" y="1584" width="208" height="52" rx="6" class="box"/>
<text x="536" y="1602" text-anchor="middle" class="th">Saída linear</text><text x="536" y="1620" text-anchor="middle" class="ts">1 neurônio · sem ativação</text>
<rect x="40" y="1648" width="188" height="50" rx="6" class="box"/>
<text x="134" y="1668" text-anchor="middle" class="th">Otimizador</text><text x="134" y="1686" text-anchor="middle" class="ts">Adam  lr=1e-3</text>
<rect x="240" y="1648" width="188" height="50" rx="6" class="box"/>
<text x="334" y="1668" text-anchor="middle" class="th">Loss híbrida</text><text x="334" y="1686" text-anchor="middle" class="ts">RMSE + λ · (1 − Sharpe)</text>
<rect x="440" y="1648" width="200" height="50" rx="6" class="box"/>
<text x="540" y="1668" text-anchor="middle" class="th">Early stopping</text><text x="540" y="1686" text-anchor="middle" class="ts">patience=10 · 100 epochs</text>

<line x1="40" y1="1718" x2="640" y2="1718" class="div"/>
<text x="40" y="1744" class="tl">THRESHOLD DINÂMICO</text>
<rect x="40" y="1754" width="600" height="36" rx="6" class="box"/>
<text x="56" y="1772" class="th">Percentil p30 da distribuição de |ŷ| no treino — individual por ativo</text>
<text x="56" y="1786" class="ts">Opera quando |ŷ| &gt; threshold · fica em cash nos 30%+ de dias com menor convicção</text>
<rect x="40" y="1802" width="296" height="26" fill="none" stroke="#E2E2E4" stroke-width="0.5" rx="4"/>
<text x="56" y="1819" class="ts">ŷ &gt; thr → long  ·  ŷ &lt; −thr → short</text>
<rect x="344" y="1802" width="296" height="26" fill="none" stroke="#E2E2E4" stroke-width="0.5" rx="4"/>
<text x="360" y="1819" class="ts">|ŷ| ≤ thr → cash (protege capital)</text>

<line x1="40" y1="1848" x2="640" y2="1848" class="div"/>
<text x="40" y="1874" class="tl">STACK TECNOLÓGICA</text>
<rect x="40"  y="1884" width="112" height="50" rx="6" class="box"/>
<text x="96"  y="1906" text-anchor="middle" class="th">torch</text><text x="96"  y="1922" text-anchor="middle" class="ts">LSTM + treino</text>
<rect x="164" y="1884" width="112" height="50" rx="6" class="box"/>
<text x="220" y="1906" text-anchor="middle" class="th">yfinance</text><text x="220" y="1922" text-anchor="middle" class="ts">Coleta de dados</text>
<rect x="288" y="1884" width="112" height="50" rx="6" class="box"/>
<text x="344" y="1906" text-anchor="middle" class="th">pandas-ta</text><text x="344" y="1922" text-anchor="middle" class="ts">Indicadores técnicos</text>
<rect x="412" y="1884" width="112" height="50" rx="6" class="box"/>
<text x="468" y="1906" text-anchor="middle" class="th">scikit-learn</text><text x="468" y="1922" text-anchor="middle" class="ts">Normalização</text>
<rect x="536" y="1884" width="104" height="50" rx="6" class="box"/>
<text x="588" y="1906" text-anchor="middle" class="th">matplotlib</text><text x="588" y="1922" text-anchor="middle" class="ts">Visualizações</text>

<line x1="40" y1="1954" x2="640" y2="1954" class="div"/>
<text x="40" y="1980" class="tl">NOTEBOOKS</text>
<rect x="40" y="1990" width="286" height="60" rx="6" class="box"/>
<text x="56" y="2010" class="th">exploratory_analysis.ipynb</text>
<text x="56" y="2026" class="ts">Teste ADF · correlação · mutual information</text>
<text x="56" y="2040" class="ts">justificativa empírica das 13 features</text>
<rect x="354" y="1990" width="286" height="60" rx="6" class="box"/>
<text x="370" y="2010" class="th">energy_lstm.ipynb</text>
<text x="370" y="2026" class="ts">Pipeline · treino · avaliação · trading</text>
<text x="370" y="2040" class="ts">buy &amp; hold · simulação $1.000 · 50 seeds</text>

<line x1="40" y1="2070" x2="640" y2="2070" class="div"/>
<text x="40" y="2096" class="tl">LIMITAÇÕES E TRABALHO FUTURO</text>
<rect x="40" y="2106" width="600" height="24" fill="none" stroke="#E2E2E4" stroke-width="0.5" rx="4"/>
<text x="56" y="2122" class="ts">Custos de transação não incluídos — spreads e comissões podem consumir parte do alpha</text>
<rect x="40" y="2130" width="600" height="24" fill="none" stroke="#E2E2E4" stroke-width="0.5" rx="4"/>
<text x="56" y="2146" class="ts">XOM único outlier negativo — hipótese: crack spread (não incluído) é driver relevante para integradas</text>
<rect x="40" y="2154" width="600" height="24" fill="none" stroke="#E2E2E4" stroke-width="0.5" rx="4"/>
<text x="56" y="2170" class="ts">Teste em múltiplos períodos fora da amostra tornaria a análise de robustez ainda mais forte</text>
<rect x="40" y="2178" width="600" height="24" fill="none" stroke="#E2E2E4" stroke-width="0.5" rx="4"/>
<text x="56" y="2194" class="ts">Trabalho futuro: crack spread, sentiment de notícias, arquiteturas Transformer</text>

<line x1="40" y1="2224" x2="640" y2="2224" class="div"/>
<text x="40" y="2248" class="ts">Tensor de entrada: (amostras, 20, 13)  ·  Janela: 20 dias  ·  Threshold: p30  ·  Seeds: 50  ·  Épocas máx: 100</text>
<text x="40" y="2266" class="ts">Normalização: StandardScaler ajustado apenas no treino  ·  Split: temporal estrito, sem embaralhamento</text>
</svg>
