<svg width="100%" viewBox="0 0 680 1960" xmlns="http://www.w3.org/2000/svg">
<defs>
  <marker id="arrow" viewBox="0 0 10 10" refX="8" refY="5" markerWidth="6" markerHeight="6" orient="auto-start-reverse">
    <path d="M2 1L8 5L2 9" fill="none" stroke="context-stroke" stroke-width="1.5" stroke-linecap="round" stroke-linejoin="round"/>
  </marker>
</defs>
<style>
  text { font-family: system-ui, sans-serif; }
  .t  { font-size: 14px; font-weight: 400; fill: #111; }
  .ts { font-size: 12px; font-weight: 400; fill: #555; }
  .th { font-size: 14px; font-weight: 500; fill: #111; }
  .label { font-size: 11px; font-weight: 500; fill: #888; letter-spacing: 0.06em; }
  .box { fill: #F7F7F8; stroke: #E0E0E2; stroke-width: 0.5; }
  .divider { stroke: #E0E0E2; stroke-width: 0.5; }
  .tag-bg-teal   { fill: #E1F5EE; }
  .tag-bg-purple { fill: #EEEDFE; }
  .tag-bg-amber  { fill: #FAEEDA; }
  .tag-bg-coral  { fill: #FDE8E4; }
  .tag-fg-teal   { fill: #085041; font-size: 11px; font-weight: 500; font-family: system-ui, sans-serif; }
  .tag-fg-purple { fill: #3C3489; font-size: 11px; font-weight: 500; font-family: system-ui, sans-serif; }
  .tag-fg-amber  { fill: #633806; font-size: 11px; font-weight: 500; font-family: system-ui, sans-serif; }
  .tag-fg-coral  { fill: #7A1E10; font-size: 11px; font-weight: 500; font-family: system-ui, sans-serif; }
</style>
<!-- HEADER -->
<text x="40" y="54" font-size="22" font-weight="500" fill="#111">Previsão de ações do setor de energia com LSTM</text>
<text x="40" y="78" class="ts">Carteira NYSE · Deep learning · PyTorch · pandas-ta</text>
<line x1="40" y1="94" x2="640" y2="94" class="divider"/>
<!-- CARTEIRA -->
<text x="40" y="122" class="label">CARTEIRA</text>
<rect x="40" y="132" width="600" height="30" rx="4" class="box"/>
<text x="56" y="151" class="th">Ticker</text><text x="140" y="151" class="th">Empresa</text><text x="300" y="151" class="th">Subsetor</text><text x="460" y="151" class="th">Papel</text>
<rect x="40" y="162" width="600" height="32" rx="0" fill="none" stroke="#E0E0E2" stroke-width="0.5"/>
<rect x="40" y="162" width="88" height="32" rx="0" class="tag-bg-teal"/>
<text x="56" y="182" class="tag-fg-teal">XOM</text><text x="140" y="182" class="t">ExxonMobil</text><text x="300" y="182" class="ts">Petróleo integrado</text><text x="460" y="182" class="ts">Âncora — benchmark global</text>
<rect x="40" y="194" width="600" height="32" rx="0" fill="none" stroke="#E0E0E2" stroke-width="0.5"/>
<rect x="40" y="194" width="88" height="32" rx="0" class="tag-bg-teal"/>
<text x="56" y="214" class="tag-fg-teal">CVX</text><text x="140" y="214" class="t">Chevron</text><text x="300" y="214" class="ts">Petróleo integrado</text><text x="460" y="214" class="ts">Âncora — benchmark americano</text>
<rect x="40" y="226" width="600" height="32" rx="0" fill="none" stroke="#E0E0E2" stroke-width="0.5"/>
<rect x="40" y="226" width="88" height="32" rx="0" class="tag-bg-purple"/>
<text x="56" y="246" class="tag-fg-purple">SLB</text><text x="140" y="246" class="t">Schlumberger</text><text x="300" y="246" class="ts">Serviços de exploração</text><text x="460" y="246" class="ts">Defasagem 1–2 trimestres</text>
<rect x="40" y="258" width="600" height="32" rx="0" fill="none" stroke="#E0E0E2" stroke-width="0.5"/>
<rect x="40" y="258" width="88" height="32" rx="0" class="tag-bg-purple"/>
<text x="56" y="278" class="tag-fg-purple">HAL</text><text x="140" y="278" class="t">Halliburton</text><text x="300" y="278" class="ts">Serviços de completação</text><text x="460" y="278" class="ts">Defasagem 1–2 trimestres</text>
<rect x="40" y="302" width="600" height="48" rx="6" class="box"/>
<text x="56" y="322" class="ts">WTI sobe → XOM/CVX lucram → aumentam capex → contratam SLB/HAL (1–2 trimestres depois).</text>
<text x="56" y="340" class="ts">A LSTM multivariada aprende essa cadeia de causalidade treinando os 4 ativos em conjunto.</text>
<!-- DADOS -->
<line x1="40" y1="368" x2="640" y2="368" class="divider"/>
<text x="40" y="394" class="label">DADOS E PERÍODO</text>
<rect x="40" y="404" width="178" height="54" rx="6" class="box"/>
<text x="56" y="424" class="th">Treino</text><text x="56" y="442" class="ts">2010 – 2016</text>
<rect x="231" y="404" width="178" height="54" rx="6" class="box"/>
<text x="247" y="424" class="th">Validação</text><text x="247" y="442" class="ts">2017 – 2018</text>
<rect x="422" y="404" width="178" height="54" rx="6" class="box"/>
<text x="438" y="424" class="th">Teste</text><text x="438" y="442" class="ts">2023 – 2024</text>
<rect x="40" y="470" width="560" height="32" rx="6" fill="none" stroke="#E0E0E2" stroke-width="0.5"/>
<rect x="40" y="470" width="104" height="32" rx="6" class="tag-bg-coral"/>
<text x="56" y="490" class="tag-fg-coral">2019–2022 excluído</text>
<text x="156" y="490" class="ts">WTI negativo em abr/2020 — correlações quebraram — regime não repetível</text>
<!-- FEATURES -->
<line x1="40" y1="522" x2="640" y2="522" class="divider"/>
<text x="40" y="548" class="label">13 FEATURES — GRUPOS DE INFORMAÇÃO NÃO REDUNDANTES</text>
<rect x="40" y="558" width="600" height="30" rx="4" class="box"/>
<text x="56" y="577" class="th">Feature</text><text x="210" y="577" class="th">Grupo</text><text x="310" y="577" class="th">Justificativa</text>
<rect x="40" y="588" width="600" height="28" fill="none" stroke="#E0E0E2" stroke-width="0.5"/>
<text x="56" y="606" class="t">logret_close</text><rect x="208" y="594" width="66" height="16" rx="8" class="tag-bg-teal"/><text x="215" y="605" class="tag-fg-teal">Preço</text><text x="310" y="606" class="ts">Estacionária (ADF p&lt;0.05) — comparável entre épocas</text>
<rect x="40" y="616" width="600" height="28" fill="none" stroke="#E0E0E2" stroke-width="0.5"/>
<text x="56" y="634" class="t">logret_open</text><rect x="208" y="622" width="66" height="16" rx="8" class="tag-bg-teal"/><text x="215" y="633" class="tag-fg-teal">Preço</text><text x="310" y="634" class="ts">Gap overnight — surpresas fora do pregão</text>
<rect x="40" y="644" width="600" height="28" fill="none" stroke="#E0E0E2" stroke-width="0.5"/>
<text x="56" y="662" class="t">volume_ratio</text><rect x="208" y="650" width="62" height="16" rx="8" class="tag-bg-amber"/><text x="214" y="661" class="tag-fg-amber">Volume</text><text x="310" y="662" class="ts">Anomalia de participação normalizada</text>
<rect x="40" y="672" width="600" height="28" fill="none" stroke="#E0E0E2" stroke-width="0.5"/>
<text x="56" y="690" class="t">sma_diff</text><rect x="208" y="678" width="78" height="16" rx="8" class="tag-bg-purple"/><text x="214" y="689" class="tag-fg-purple">Tendência</text><text x="310" y="690" class="ts">Regime bull/bear — profecia autorrealizável institucional</text>
<rect x="40" y="700" width="600" height="28" fill="none" stroke="#E0E0E2" stroke-width="0.5"/>
<text x="56" y="718" class="t">ema_diff</text><rect x="208" y="706" width="78" height="16" rx="8" class="tag-bg-purple"/><text x="214" y="717" class="tag-fg-purple">Tendência</text><text x="310" y="718" class="ts">Tendência curto prazo — complementar à sma_diff</text>
<rect x="40" y="728" width="600" height="28" fill="none" stroke="#E0E0E2" stroke-width="0.5"/>
<text x="56" y="746" class="t">rsi14</text><rect x="208" y="734" width="70" height="16" rx="8" class="tag-bg-coral"/><text x="214" y="745" class="tag-fg-coral">Momentum</text><text x="310" y="746" class="ts">Sobrecompra/sobrevenda — pandas-ta entrega 0–100</text>
<rect x="40" y="756" width="600" height="28" fill="none" stroke="#E0E0E2" stroke-width="0.5"/>
<text x="56" y="774" class="t">macd_hist</text><rect x="208" y="762" width="70" height="16" rx="8" class="tag-bg-coral"/><text x="214" y="773" class="tag-fg-coral">Momentum</text><text x="310" y="774" class="ts">Aceleração da tendência — baixa correlação com rsi14</text>
<rect x="40" y="784" width="600" height="28" fill="none" stroke="#E0E0E2" stroke-width="0.5"/>
<text x="56" y="802" class="t">atr14</text><rect x="208" y="790" width="74" height="16" rx="8" class="tag-bg-teal"/><text x="214" y="801" class="tag-fg-teal">Volatilidade</text><text x="310" y="802" class="ts">Regime de volatilidade — fundamental no setor de energia</text>
<rect x="40" y="812" width="600" height="28" fill="none" stroke="#E0E0E2" stroke-width="0.5"/>
<text x="56" y="830" class="t">bb_pct_b</text><rect x="208" y="818" width="74" height="16" rx="8" class="tag-bg-teal"/><text x="214" y="829" class="tag-fg-teal">Volatilidade</text><text x="310" y="830" class="ts">Posição no canal Bollinger — tendência + volatilidade</text>
<rect x="40" y="840" width="600" height="28" fill="none" stroke="#E0E0E2" stroke-width="0.5"/>
<text x="56" y="858" class="t">wti_logret</text><rect x="208" y="846" width="50" height="16" rx="8" class="tag-bg-amber"/><text x="214" y="857" class="tag-fg-amber">Macro</text><text x="310" y="858" class="ts">Driver causal direto de XOM, CVX, SLB e HAL</text>
<rect x="40" y="868" width="600" height="28" fill="none" stroke="#E0E0E2" stroke-width="0.5"/>
<text x="56" y="886" class="t">brent_logret</text><rect x="208" y="874" width="50" height="16" rx="8" class="tag-bg-amber"/><text x="214" y="885" class="tag-fg-amber">Macro</text><text x="310" y="886" class="ts">Benchmark global — choques geopolíticos internacionais</text>
<rect x="40" y="896" width="600" height="28" fill="none" stroke="#E0E0E2" stroke-width="0.5"/>
<text x="56" y="914" class="t">spread_wb</text><rect x="208" y="902" width="50" height="16" rx="8" class="tag-bg-amber"/><text x="214" y="913" class="tag-fg-amber">Macro</text><text x="310" y="914" class="ts">Desequilíbrio regional — informação além de WTI e Brent</text>
<rect x="40" y="924" width="600" height="28" fill="none" stroke="#E0E0E2" stroke-width="0.5"/>
<text x="56" y="942" class="t">ng_logret</text><rect x="208" y="930" width="50" height="16" rx="8" class="tag-bg-amber"/><text x="214" y="941" class="tag-fg-amber">Macro</text><text x="310" y="942" class="ts">Gás natural — ciclo nem sempre sincronizado com petróleo</text>
<rect x="40" y="964" width="600" height="38" rx="6" class="box"/>
<text x="56" y="980" class="th">Janela de observação: 20 dias (1 mês de pregão)</text>
<text x="56" y="996" class="ts">Cobre RSI/SMA20 aquecidos · unidade natural de rebalanceamento · info &gt;20d já precificada</text>
<!-- ARQUITETURA -->
<line x1="40" y1="1022" x2="640" y2="1022" class="divider"/>
<text x="40" y="1048" class="label">ARQUITETURA</text>
<rect x="40" y="1058" width="156" height="54" rx="6" class="box"/>
<text x="118" y="1082" text-anchor="middle" class="th">Entrada</text><text x="118" y="1100" text-anchor="middle" class="ts">(batch, 20, 13)</text>
<line x1="196" y1="1085" x2="226" y2="1085" stroke="#999" stroke-width="1" marker-end="url(#arrow)"/>
<rect x="228" y="1058" width="196" height="54" rx="6" class="box"/>
<text x="326" y="1076" text-anchor="middle" class="th">LSTM × 2 camadas</text><text x="326" y="1094" text-anchor="middle" class="ts">hidden=128 · dropout=0.2</text>
<line x1="424" y1="1085" x2="454" y2="1085" stroke="#999" stroke-width="1" marker-end="url(#arrow)"/>
<rect x="456" y="1058" width="184" height="54" rx="6" class="box"/>
<text x="548" y="1076" text-anchor="middle" class="th">Saída linear</text><text x="548" y="1094" text-anchor="middle" class="ts">4 neurônios · sem ativação</text>
<rect x="40" y="1124" width="600" height="26" rx="6" class="box"/>
<text x="56" y="1141" class="ts">Sem ativação na saída: log-returns são valores reais contínuos — sigmoid/tanh restringiriam o intervalo artificialmente.</text>
<rect x="40" y="1162" width="600" height="38" rx="6" class="box"/>
<text x="56" y="1178" class="th">Função de perda híbrida</text>
<text x="56" y="1194" class="ts">Loss = RMSE + λ · (1 − Sharpe normalizado)    ·    λ controla equilíbrio entre precisão e performance financeira</text>
<!-- MÉTRICAS -->
<line x1="40" y1="1222" x2="640" y2="1222" class="divider"/>
<text x="40" y="1248" class="label">MÉTRICAS DE AVALIAÇÃO</text>
<text x="40" y="1270" class="th">Estatísticas</text>
<rect x="40" y="1278" width="600" height="28" rx="4" class="box"/>
<text x="56" y="1296" class="th">Métrica</text><text x="200" y="1296" class="th">Fórmula</text><text x="390" y="1296" class="th">O que mede</text>
<rect x="40" y="1306" width="600" height="26" fill="none" stroke="#E0E0E2" stroke-width="0.5"/>
<text x="56" y="1323" class="t">RMSE</text><text x="200" y="1323" class="ts">√ mean((ŷ − y)²)</text><text x="390" y="1323" class="ts">Penaliza erros grandes — padrão em regressão</text>
<rect x="40" y="1332" width="600" height="26" fill="none" stroke="#E0E0E2" stroke-width="0.5"/>
<text x="56" y="1349" class="t">MAE</text><text x="200" y="1349" class="ts">mean(|ŷ − y|)</text><text x="390" y="1349" class="ts">Complementa RMSE — menos sensível a outliers</text>
<rect x="40" y="1358" width="600" height="26" fill="none" stroke="#E0E0E2" stroke-width="0.5"/>
<text x="56" y="1375" class="t">R²</text><text x="200" y="1375" class="ts">1 − SS_res / SS_tot</text><text x="390" y="1375" class="ts">Em finanças, 0.02–0.05 já é relevante</text>
<text x="40" y="1406" class="th">Financeiras</text>
<rect x="40" y="1414" width="600" height="28" rx="4" class="box"/>
<text x="56" y="1432" class="th">Métrica</text><text x="230" y="1432" class="th">O que mede</text><text x="490" y="1432" class="th">Ref.</text>
<rect x="40" y="1442" width="600" height="26" fill="none" stroke="#E0E0E2" stroke-width="0.5"/>
<text x="56" y="1459" class="t">Acurácia direcional</text><text x="230" y="1459" class="ts">% de dias com direção correta</text><text x="490" y="1459" class="ts">&gt; 52% é relevante</text>
<rect x="40" y="1468" width="600" height="26" fill="none" stroke="#E0E0E2" stroke-width="0.5"/>
<text x="56" y="1485" class="t">Sharpe ratio</text><text x="230" y="1485" class="ts">Retorno médio / desvio padrão</text><text x="490" y="1485" class="ts">&gt; 1.0 é bom</text>
<rect x="40" y="1494" width="600" height="26" fill="none" stroke="#E0E0E2" stroke-width="0.5"/>
<text x="56" y="1511" class="t">Máximo drawdown</text><text x="230" y="1511" class="ts">Maior queda acumulada desde o pico</text><text x="490" y="1511" class="ts">Pior cenário</text>
<!-- STACK -->
<line x1="40" y1="1540" x2="640" y2="1540" class="divider"/>
<text x="40" y="1566" class="label">STACK TECNOLÓGICA</text>
<rect x="40" y="1576" width="118" height="54" rx="6" class="box"/>
<text x="99" y="1599" text-anchor="middle" class="th">torch</text><text x="99" y="1617" text-anchor="middle" class="ts">LSTM + treino</text>
<rect x="172" y="1576" width="118" height="54" rx="6" class="box"/>
<text x="231" y="1599" text-anchor="middle" class="th">yfinance</text><text x="231" y="1617" text-anchor="middle" class="ts">Coleta de dados</text>
<rect x="304" y="1576" width="118" height="54" rx="6" class="box"/>
<text x="363" y="1599" text-anchor="middle" class="th">pandas-ta</text><text x="363" y="1617" text-anchor="middle" class="ts">Indicadores técnicos</text>
<rect x="436" y="1576" width="118" height="54" rx="6" class="box"/>
<text x="495" y="1599" text-anchor="middle" class="th">scikit-learn</text><text x="495" y="1617" text-anchor="middle" class="ts">Normalização</text>
<!-- SPLIT -->
<line x1="40" y1="1654" x2="640" y2="1654" class="divider"/>
<text x="40" y="1680" class="label">SPLIT TEMPORAL</text>
<rect x="40" y="1690" width="292" height="36" rx="4" class="tag-bg-teal"/>
<text x="186" y="1713" text-anchor="middle" class="tag-fg-teal">Treino 70% — 2010–2016</text>
<rect x="336" y="1690" width="128" height="36" rx="4" class="tag-bg-purple"/>
<text x="400" y="1713" text-anchor="middle" class="tag-fg-purple">Val. 15% — 2017–18</text>
<rect x="468" y="1690" width="172" height="36" rx="4" class="tag-bg-amber"/>
<text x="554" y="1713" text-anchor="middle" class="tag-fg-amber">Teste 15% — 2023–24</text>
<rect x="40" y="1738" width="600" height="26" rx="6" class="box"/>
<text x="56" y="1755" class="ts">Dados financeiros nunca são embaralhados — data leakage produz métricas artificialmente boas.</text>
<!-- EDA -->
<line x1="40" y1="1784" x2="640" y2="1784" class="divider"/>
<text x="40" y="1810" class="label">ANÁLISE EXPLORATÓRIA — exploratory_analysis.ipynb</text>
<rect x="40" y="1820" width="136" height="54" rx="6" class="box"/>
<text x="108" y="1842" text-anchor="middle" class="th">Teste ADF</text><text x="108" y="1860" text-anchor="middle" class="ts">Estacionariedade</text>
<rect x="188" y="1820" width="136" height="54" rx="6" class="box"/>
<text x="256" y="1842" text-anchor="middle" class="th">Correlação</text><text x="256" y="1860" text-anchor="middle" class="ts">Redundância |r|&gt;0.90</text>
<rect x="336" y="1820" width="136" height="54" rx="6" class="box"/>
<text x="404" y="1842" text-anchor="middle" class="th">Mutual info</text><text x="404" y="1860" text-anchor="middle" class="ts">Poder preditivo</text>
<rect x="484" y="1820" width="156" height="54" rx="6" class="box"/>
<text x="562" y="1842" text-anchor="middle" class="th">Corr. cruzada</text><text x="562" y="1860" text-anchor="middle" class="ts">Justifica multivariado</text>
<line x1="40" y1="1898" x2="640" y2="1898" class="divider"/>
<text x="40" y="1922" class="ts">Tensor de entrada: (amostras, 20, 13)  ·  Fonte: Yahoo Finance via yfinance  ·  Otimizador: Adam  ·  Early stopping: patience 10</text>
</svg>
